# xmcd
#
# Track frame offsets:
#	150
#	16452
#	31994
#	48123
#	65512
#	82734
#	98244
#	112039
#	126775
#	141960
#	162743
#	177000
#	196849
#	213525
#	231202
#
# Disc length: 3460 seconds
#
# Revision: 1
# Processed by: cddbd v1.5.1PL2 Copyright (c) Steve Scherf et al.
# Submitted via: audiograbber 1.83.01
#
DISCID=cb0d820f
DTITLE=KALDO - Kaldo
DYEAR=2004
DGENRE=Pop
TTITLE0=Pile moje
TTITLE1=Otkidam na tebe
TTITLE2=Ne mogu bez tebe
TTITLE3=Nada
TTITLE4=Noci bez sna
TTITLE5=Sena
TTITLE6=Covek bilo koji
TTITLE7=Nesto opasno
TTITLE8=Dragulj
TTITLE9=Sahara
TTITLE10=Reci mi samo da
TTITLE11=Suza
TTITLE12=Miris parfema
TTITLE13=Dozvoli
TTITLE14=They Want More
EXTD=
EXTT0=
EXTT1=
EXTT2=
EXTT3=
EXTT4=
EXTT5=
EXTT6=
EXTT7=
EXTT8=
EXTT9=
EXTT10=
EXTT11=
EXTT12=
EXTT13=
EXTT14=
PLAYORDER=
